<mxfile host="app.diagrams.net" modified="2022-03-15T08:13:00.705Z" agent="5.0 (Macintosh)" etag="L4TdwNafHW60ZImKdSJO" version="17.1.2" type="github">
  <diagram id="LZFTOOTDuIyTbi4reMNh" name="Page-1">
    <mxGraphModel dx="1213" dy="676" grid="1" gridSize="10" guides="1" tooltips="1" connect="1" arrows="1" fold="1" page="1" pageScale="1" pageWidth="850" pageHeight="1100" math="0" shadow="0">
      <root>
        <mxCell id="0" />
        <mxCell id="1" parent="0" />
        <mxCell id="YL2mK_GLCXmbDGwUpMA7-2" value="" style="rounded=0;whiteSpace=wrap;html=1;" parent="1" vertex="1">
          <mxGeometry x="330" y="160" width="340" height="360" as="geometry" />
        </mxCell>
        <mxCell id="YL2mK_GLCXmbDGwUpMA7-1" value="" style="sketch=0;points=[[0,0,0],[0.25,0,0],[0.5,0,0],[0.75,0,0],[1,0,0],[0,1,0],[0.25,1,0],[0.5,1,0],[0.75,1,0],[1,1,0],[0,0.25,0],[0,0.5,0],[0,0.75,0],[1,0.25,0],[1,0.5,0],[1,0.75,0]];outlineConnect=0;fontColor=#232F3E;gradientColor=#945DF2;gradientDirection=north;fillColor=#5A30B5;strokeColor=#ffffff;dashed=0;verticalLabelPosition=bottom;verticalAlign=top;align=center;html=1;fontSize=12;fontStyle=0;aspect=fixed;shape=mxgraph.aws4.resourceIcon;resIcon=mxgraph.aws4.elasticsearch_service;" parent="1" vertex="1">
          <mxGeometry x="340" y="170" width="60" height="60" as="geometry" />
        </mxCell>
        <mxCell id="YL2mK_GLCXmbDGwUpMA7-3" value="Index- Jan-1" style="strokeWidth=2;html=1;shape=mxgraph.flowchart.database;whiteSpace=wrap;" parent="1" vertex="1">
          <mxGeometry x="370" y="250" width="270" height="60" as="geometry" />
        </mxCell>
        <mxCell id="YL2mK_GLCXmbDGwUpMA7-4" value="Index-Feb-2" style="strokeWidth=2;html=1;shape=mxgraph.flowchart.database;whiteSpace=wrap;" parent="1" vertex="1">
          <mxGeometry x="370" y="330" width="270" height="60" as="geometry" />
        </mxCell>
        <mxCell id="YL2mK_GLCXmbDGwUpMA7-5" value="Index-Mar-4" style="strokeWidth=2;html=1;shape=mxgraph.flowchart.database;whiteSpace=wrap;" parent="1" vertex="1">
          <mxGeometry x="370" y="410" width="270" height="60" as="geometry" />
        </mxCell>
        <mxCell id="YL2mK_GLCXmbDGwUpMA7-8" value="1" style="ellipse;whiteSpace=wrap;html=1;" parent="1" vertex="1">
          <mxGeometry x="550" y="270" width="40" height="30" as="geometry" />
        </mxCell>
        <mxCell id="YL2mK_GLCXmbDGwUpMA7-6" value="" style="shape=flexArrow;endArrow=classic;html=1;rounded=0;" parent="1" edge="1">
          <mxGeometry width="50" height="50" relative="1" as="geometry">
            <mxPoint x="160" y="440" as="sourcePoint" />
            <mxPoint x="370" y="439.5" as="targetPoint" />
          </mxGeometry>
        </mxCell>
        <mxCell id="rJC346jmBSPDuxBm7dP8-1" value="Write" style="edgeLabel;html=1;align=center;verticalAlign=middle;resizable=0;points=[];" vertex="1" connectable="0" parent="YL2mK_GLCXmbDGwUpMA7-6">
          <mxGeometry x="-0.4762" y="-2" relative="1" as="geometry">
            <mxPoint x="45" y="-2" as="offset" />
          </mxGeometry>
        </mxCell>
        <mxCell id="YL2mK_GLCXmbDGwUpMA7-9" value="1" style="ellipse;whiteSpace=wrap;html=1;" parent="1" vertex="1">
          <mxGeometry x="160" y="400" width="40" height="30" as="geometry" />
        </mxCell>
        <mxCell id="YL2mK_GLCXmbDGwUpMA7-10" value="5" style="ellipse;whiteSpace=wrap;html=1;" parent="1" vertex="1">
          <mxGeometry x="210" y="400" width="40" height="30" as="geometry" />
        </mxCell>
        <mxCell id="YL2mK_GLCXmbDGwUpMA7-11" value="7" style="ellipse;whiteSpace=wrap;html=1;" parent="1" vertex="1">
          <mxGeometry x="260" y="400" width="40" height="30" as="geometry" />
        </mxCell>
        <mxCell id="YL2mK_GLCXmbDGwUpMA7-12" value="" style="shape=flexArrow;endArrow=classic;html=1;rounded=0;exitX=1;exitY=0.5;exitDx=0;exitDy=0;exitPerimeter=0;fillColor=#FFFFFF;" parent="1" source="YL2mK_GLCXmbDGwUpMA7-3" edge="1">
          <mxGeometry width="50" height="50" relative="1" as="geometry">
            <mxPoint x="730" y="410" as="sourcePoint" />
            <mxPoint x="760" y="340" as="targetPoint" />
          </mxGeometry>
        </mxCell>
        <mxCell id="YL2mK_GLCXmbDGwUpMA7-13" value="" style="shape=flexArrow;endArrow=classic;html=1;rounded=0;exitX=1;exitY=0.5;exitDx=0;exitDy=0;exitPerimeter=0;" parent="1" source="YL2mK_GLCXmbDGwUpMA7-5" edge="1">
          <mxGeometry width="50" height="50" relative="1" as="geometry">
            <mxPoint x="650" y="290" as="sourcePoint" />
            <mxPoint x="760" y="380" as="targetPoint" />
          </mxGeometry>
        </mxCell>
        <mxCell id="YL2mK_GLCXmbDGwUpMA7-14" value="" style="shape=flexArrow;endArrow=classic;html=1;rounded=0;exitX=1;exitY=0.5;exitDx=0;exitDy=0;exitPerimeter=0;" parent="1" source="YL2mK_GLCXmbDGwUpMA7-4" edge="1">
          <mxGeometry width="50" height="50" relative="1" as="geometry">
            <mxPoint x="660" y="300" as="sourcePoint" />
            <mxPoint x="750" y="360" as="targetPoint" />
          </mxGeometry>
        </mxCell>
        <mxCell id="YL2mK_GLCXmbDGwUpMA7-15" value="Query" style="rounded=0;whiteSpace=wrap;html=1;" parent="1" vertex="1">
          <mxGeometry x="770" y="330" width="120" height="60" as="geometry" />
        </mxCell>
        <mxCell id="rJC346jmBSPDuxBm7dP8-3" value="g2s2:&lt;br&gt;write index create date" style="rounded=1;whiteSpace=wrap;html=1;rotation=-90;" vertex="1" parent="1">
          <mxGeometry x="250" y="425" width="140" height="30" as="geometry" />
        </mxCell>
      </root>
    </mxGraphModel>
  </diagram>
</mxfile>
